<svg xmlns="http://www.w3.org/2000/svg" xmlns:xlink="http://www.w3.org/1999/xlink" width="18" height="16" viewBox="0 0 18 16">
  <defs>
    <path id="changelog2-a" d="M1,1 L17,1 C17.5522847,1 18,1.44771525 18,2 C18,2.55228475 17.5522847,3 17,3 L1,3 C0.44771525,3 6.76353751e-17,2.55228475 0,2 C-6.76353751e-17,1.44771525 0.44771525,1 1,1 Z M1,8 L7,8 C7.55228475,8 8,8.44771525 8,9 C8,9.55228475 7.55228475,10 7,10 L1,10 C0.44771525,10 6.76353751e-17,9.55228475 0,9 C-6.76353751e-17,8.44771525 0.44771525,8 1,8 Z M1,15 L13,15 C13.5522847,15 14,15.4477153 14,16 C14,16.5522847 13.5522847,17 13,17 L1,17 C0.44771525,17 6.76353751e-17,16.5522847 0,16 C-6.76353751e-17,15.4477153 0.44771525,15 1,15 Z"/>
  </defs>
  <use fill-rule="evenodd" transform="translate(0 -1)" xlink:href="#changelog2-a"/>
</svg>
