<svg xmlns="http://www.w3.org/2000/svg" xmlns:xlink="http://www.w3.org/1999/xlink" width="12" height="12" viewBox="0 0 12 12">
  <defs>
    <path id="cog-a" d="M9.8,3.613 L10.95,2.464 L9.536,1.05 L8.387,2.2 C7.96097007,1.92928214 7.49192343,1.73314151 7,1.62 L7,0 L5,0 L5,1.62 C4.50807657,1.73314151 4.03902993,1.92928214 3.613,2.2 L2.464,1.05 L1.05,2.464 L2.2,3.613 C1.92928214,4.03902993 1.73314151,4.50807657 1.62,5 L0,5 L0,7 L1.62,7 C1.73314151,7.49192343 1.92928214,7.96097007 2.2,8.387 L1.05,9.536 L2.464,10.95 L3.613,9.8 C4.03902993,10.0707179 4.50807657,10.2668585 5,10.38 L5,12 L7,12 L7,10.38 C7.49192343,10.2668585 7.96097007,10.0707179 8.387,9.8 L9.536,10.95 L10.95,9.536 L9.8,8.387 C10.0707179,7.96097007 10.2668585,7.49192343 10.38,7 L12,7 L12,5 L10.38,5 C10.2668585,4.50807657 10.0707179,4.03902993 9.8,3.613 Z M6,8 C4.8954305,8 4,7.1045695 4,6 C4,4.8954305 4.8954305,4 6,4 C7.1045695,4 8,4.8954305 8,6 C8,6.53043298 7.78928632,7.03914081 7.41421356,7.41421356 C7.03914081,7.78928632 6.53043298,8 6,8 Z"/>
  </defs>
  <use fill-rule="evenodd" xlink:href="#cog-a"/>
</svg>
