<svg xmlns="http://www.w3.org/2000/svg" xmlns:xlink="http://www.w3.org/1999/xlink" width="12" height="12" viewBox="0 0 12 12">
  <defs>
    <path id="disabled-a" d="M6,7 C5.44771525,7 5,6.55228475 5,6 L5,1 C5,0.44771525 5.44771525,0 6,0 C6.55228475,0 7,0.44771525 7,1 L7,6 C7,6.55228475 6.55228475,7 6,7 Z M6,12.0000081 C3.58286464,12.0023561 1.40092241,10.552416 0.466786855,8.3230799 C-0.467348704,6.09374375 0.0292037074,3.52146195 1.726,1.8 C2.1170651,1.43260399 2.72838883,1.43932778 3.11127852,1.81523631 C3.49416821,2.19114484 3.51213861,2.80224138 3.152,3.2 C1.60750062,4.76833341 1.62037142,7.28984043 3.18080074,8.84232501 C4.74123006,10.3948096 7.26276994,10.3948096 8.82319926,8.84232501 C10.3836286,7.28984043 10.3964994,4.76833341 8.852,3.2 C8.5845931,2.94877781 8.47623659,2.57128954 8.56968594,2.216485 C8.66313528,1.86168046 8.94338193,1.5865435 9.29984578,1.49963802 C9.65630964,1.41273255 10.0317404,1.52801612 10.278,1.8 C11.9753108,3.52197974 12.4716069,6.095231 11.5364455,8.32492861 C10.6012841,10.5546262 8.41786321,12.0039727 6,12.0000081 Z"/>
  </defs>
  <use fill-rule="evenodd" xlink:href="#disabled-a"/>
</svg>
