<svg xmlns="http://www.w3.org/2000/svg" xmlns:xlink="http://www.w3.org/1999/xlink" width="6" height="10" viewBox="0 0 6 10">
  <defs>
    <path id="drag-a" d="M4,1 L8,1 C8.55228475,1 9,1.44771525 9,2 C9,2.55228475 8.55228475,3 8,3 L4,3 C3.44771525,3 3,2.55228475 3,2 C3,1.44771525 3.44771525,1 4,1 Z M4,5 L8,5 C8.55228475,5 9,5.44771525 9,6 C9,6.55228475 8.55228475,7 8,7 L4,7 C3.44771525,7 3,6.55228475 3,6 C3,5.44771525 3.44771525,5 4,5 Z M4,9 L8,9 C8.55228475,9 9,9.44771525 9,10 C9,10.5522847 8.55228475,11 8,11 L4,11 C3.44771525,11 3,10.5522847 3,10 C3,9.44771525 3.44771525,9 4,9 Z"/>
  </defs>
  <use fill-rule="evenodd" transform="translate(-3 -1)" xlink:href="#drag-a"/>
</svg>
