<svg xmlns="http://www.w3.org/2000/svg" xmlns:xlink="http://www.w3.org/1999/xlink" width="10" height="12" viewBox="0 0 10 12">
  <defs>
    <path id="duplicate-a" d="M8,8 L8,4 C8,3.44771525 7.55228475,3 7,3 L5,3 L5,1 C5,0.44771525 5.44771525,1.01453063e-16 6,0 L10,0 C10.5522847,-1.01453063e-16 11,0.44771525 11,1 L11,7 C11,7.55228475 10.5522847,8 10,8 L8,8 Z M2,4 L6,4 C6.55228475,4 7,4.44771525 7,5 L7,11 C7,11.5522847 6.55228475,12 6,12 L2,12 C1.44771525,12 1,11.5522847 1,11 L1,5 C1,4.44771525 1.44771525,4 2,4 Z"/>
  </defs>
  <use fill-rule="evenodd" transform="translate(-1)" xlink:href="#duplicate-a"/>
</svg>
