<svg xmlns="http://www.w3.org/2000/svg" xmlns:xlink="http://www.w3.org/1999/xlink" width="12" height="10" viewBox="0 0 12 10">
  <defs>
    <path id="eye-a" d="M6,1 C9.577,1 11.8,5.367 11.9,5.553 C12.0406214,5.83441076 12.0406214,6.16558924 11.9,6.447 C11.8,6.633 9.577,11 6,11 C2.423,11 0.2,6.633 0.105,6.447 C-0.0356213908,6.16558924 -0.0356213908,5.83441076 0.105,5.553 C0.2,5.367 2.423,1 6,1 Z M6,9 C7.807,9 9.282,6.924 9.852,5.994 C9.171,4.872 7.684,3 6,3 C4.193,3 2.718,5.076 2.148,6.006 C2.829,7.129 4.316,9 6,9 Z M6,7.5 C5.17157288,7.5 4.5,6.82842712 4.5,6 C4.5,5.17157288 5.17157288,4.5 6,4.5 C6.82842712,4.5 7.5,5.17157288 7.5,6 C7.5,6.82842712 6.82842712,7.5 6,7.5 Z"/>
  </defs>
  <use fill-rule="evenodd" transform="translate(0 -1)" xlink:href="#eye-a"/>
</svg>
