<svg xmlns="http://www.w3.org/2000/svg" xmlns:xlink="http://www.w3.org/1999/xlink" width="18" height="14" viewBox="0 0 18 14">
  <defs>
    <path id="filter2-a" d="M2.12601749,3 C2.043753,3.31961992 2,3.65470043 2,4 C2,4.34529957 2.043753,4.68038008 2.12601749,5 L1,5 C0.44771525,5 6.76353751e-17,4.55228475 0,4 C-6.76353751e-17,3.44771525 0.44771525,3 1,3 L2.12601749,3 Z M9.87398251,3 L17,3 C17.5522847,3 18,3.44771525 18,4 C18,4.55228475 17.5522847,5 17,5 L9.87398251,5 C9.956247,4.68038008 10,4.34529957 10,4 C10,3.65470043 9.956247,3.31961992 9.87398251,3 Z M8.12601749,13 C8.043753,13.3196199 8,13.6547004 8,14 C8,14.3452996 8.043753,14.6803801 8.12601749,15 L1,15 C0.44771525,15 6.76353751e-17,14.5522847 0,14 C-6.76353751e-17,13.4477153 0.44771525,13 1,13 L8.12601749,13 Z M15.8739825,13 L17,13 C17.5522847,13 18,13.4477153 18,14 C18,14.5522847 17.5522847,15 17,15 L15.8739825,15 C15.956247,14.6803801 16,14.3452996 16,14 C16,13.6547004 15.956247,13.3196199 15.8739825,13 Z M6,6 C4.8954305,6 4,5.1045695 4,4 C4,2.8954305 4.8954305,2 6,2 C7.1045695,2 8,2.8954305 8,4 C8,5.1045695 7.1045695,6 6,6 Z M12,16 C10.8954305,16 10,15.1045695 10,14 C10,12.8954305 10.8954305,12 12,12 C13.1045695,12 14,12.8954305 14,14 C14,15.1045695 13.1045695,16 12,16 Z"/>
  </defs>
  <use fill-rule="evenodd" transform="translate(0 -2)" xlink:href="#filter2-a"/>
</svg>
