<svg xmlns="http://www.w3.org/2000/svg" xmlns:xlink="http://www.w3.org/1999/xlink" width="12" height="9" viewBox="0 0 12 9">
  <defs>
    <path id="tag-a" d="M1.24159555,6.34818556 L3.08202226,8.10495652 C3.28286333,8.29666844 3.28286333,8.60749489 3.08202226,8.79920681 C2.8811812,8.99091874 2.5555535,8.99091874 2.35471243,8.79920681 L0.150630798,6.69531071 C-0.0502102661,6.50359878 -0.0502102661,6.19277234 0.150630798,6.00106041 L2.35471243,3.89716431 C2.5555535,3.70545238 2.8811812,3.70545238 3.08202226,3.89716431 C3.28286333,4.08887623 3.28286333,4.39970268 3.08202226,4.5914146 L1.24159555,6.34818556 Z M8.23226345,8.10495652 L10.0726902,6.34818556 L8.23226345,4.5914146 C8.03142239,4.39970268 8.03142239,4.08887623 8.23226345,3.89716431 C8.43310452,3.70545238 8.75873222,3.70545238 8.95957328,3.89716431 L11.1636549,6.00106041 C11.364496,6.19277234 11.364496,6.50359878 11.1636549,6.69531071 L8.95957328,8.79920681 C8.75873222,8.99091874 8.43310452,8.99091874 8.23226345,8.79920681 C8.03142239,8.60749489 8.03142239,8.29666844 8.23226345,8.10495652 Z M4.67107743,10.3730932 C4.57401141,10.6278915 4.27893308,10.7593355 4.01200153,10.6666816 C3.74506997,10.5740276 3.60736675,10.2923619 3.70443277,10.0375636 L6.64320828,2.32327793 C6.7402743,2.06847963 7.03535263,1.93703564 7.30228419,2.02968957 C7.56921574,2.1223435 7.70691896,2.40400918 7.60985294,2.65880748 L4.67107743,10.3730932 Z"/>
  </defs>
  <use fill-rule="evenodd" transform="translate(0 -2)" xlink:href="#tag-a"/>
</svg>
