<svg xmlns="http://www.w3.org/2000/svg" xmlns:xlink="http://www.w3.org/1999/xlink" width="12" height="12" viewBox="0 0 12 12">
  <defs>
    <path id="times-a" d="M6,4.58578644 L10.2928932,0.292893219 C10.6834175,-0.0976310729 11.3165825,-0.0976310729 11.7071068,0.292893219 C12.0976311,0.683417511 12.0976311,1.31658249 11.7071068,1.70710678 L7.41421356,6 L11.7071068,10.2928932 C12.0976311,10.6834175 12.0976311,11.3165825 11.7071068,11.7071068 C11.3165825,12.0976311 10.6834175,12.0976311 10.2928932,11.7071068 L6,7.41421356 L1.70710678,11.7071068 C1.31658249,12.0976311 0.683417511,12.0976311 0.292893219,11.7071068 C-0.0976310729,11.3165825 -0.0976310729,10.6834175 0.292893219,10.2928932 L4.58578644,6 L0.292893219,1.70710678 C-0.0976310729,1.31658249 -0.0976310729,0.683417511 0.292893219,0.292893219 C0.683417511,-0.0976310729 1.31658249,-0.0976310729 1.70710678,0.292893219 L6,4.58578644 Z"/>
  </defs>
  <use fill-rule="evenodd" xlink:href="#times-a"/>
</svg>
