<svg xmlns="http://www.w3.org/2000/svg" xmlns:xlink="http://www.w3.org/1999/xlink" width="12" height="12" viewBox="0 0 12 12">
  <defs>
    <path id="trash-a" d="M10,4 L10,10 C10,11.1045695 9.1045695,12 8,12 L4,12 C2.8954305,12 2,11.1045695 2,10 L2,4 L1,4 C0.44771525,4 6.76353751e-17,3.55228475 0,3 C-6.76353751e-17,2.44771525 0.44771525,2 1,2 L5,2 L5,1 C5,0.44771525 5.44771525,1.01453063e-16 6,0 C6.55228475,-1.01453063e-16 7,0.44771525 7,1 L7,2 L11,2 C11.5522847,2 12,2.44771525 12,3 C12,3.55228475 11.5522847,4 11,4 L10,4 Z"/>
  </defs>
  <use fill-rule="evenodd" xlink:href="#trash-a"/>
</svg>
